<mxfile host="app.diagrams.net" agent="Mozilla/5.0 (Windows NT 10.0; Win64; x64) AppleWebKit/537.36 (KHTML, like Gecko) Chrome/136.0.0.0 Safari/537.36" version="26.2.12">
  <diagram name="Page-1" id="2c0d36ab-eaac-3732-788b-9136903baeff">
    <mxGraphModel dx="3181.5" dy="777" grid="1" gridSize="10" guides="1" tooltips="1" connect="1" arrows="1" fold="1" page="1" pageScale="1.5" pageWidth="1169" pageHeight="827" background="none" math="0" shadow="0">
      <root>
        <mxCell id="0" />
        <mxCell id="1" parent="0" />
        <mxCell id="vIU2pxsFmPDskn5fKLDd-1" value="&lt;font style=&quot;font-size: 24px;&quot;&gt;&lt;b&gt;MENÃš: RESERVAS&lt;/b&gt;&lt;/font&gt;" style="rounded=1;whiteSpace=wrap;html=1;fillColor=light-dark(#23445d, #7d8c9b);strokeColor=#314354;fontColor=#ffffff;" parent="1" vertex="1">
          <mxGeometry x="490" y="170" width="310" height="160" as="geometry" />
        </mxCell>
        <mxCell id="vIU2pxsFmPDskn5fKLDd-2" value="&lt;span style=&quot;font-size: 24px;&quot;&gt;&lt;b&gt;VIAJES&lt;/b&gt;&lt;/span&gt;" style="rounded=1;whiteSpace=wrap;html=1;fillColor=light-dark(#23445d, #7d8c9b);strokeColor=#314354;fontColor=#ffffff;" parent="1" vertex="1">
          <mxGeometry x="130" y="420" width="310" height="160" as="geometry" />
        </mxCell>
        <mxCell id="vIU2pxsFmPDskn5fKLDd-3" value="&lt;span style=&quot;font-size: 24px;&quot;&gt;&lt;b&gt;INVENTARIO&lt;/b&gt;&lt;/span&gt;" style="rounded=1;whiteSpace=wrap;html=1;fillColor=light-dark(#23445d, #7d8c9b);strokeColor=#314354;fontColor=#ffffff;" parent="1" vertex="1">
          <mxGeometry x="490" y="420" width="310" height="160" as="geometry" />
        </mxCell>
        <mxCell id="vIU2pxsFmPDskn5fKLDd-4" value="&lt;font style=&quot;font-size: 24px;&quot;&gt;&lt;b&gt;CONTACTO&lt;/b&gt;&lt;/font&gt;" style="rounded=1;whiteSpace=wrap;html=1;fillColor=light-dark(#23445d, #7d8c9b);strokeColor=#314354;fontColor=#ffffff;" parent="1" vertex="1">
          <mxGeometry x="850" y="420" width="310" height="160" as="geometry" />
        </mxCell>
        <mxCell id="vIU2pxsFmPDskn5fKLDd-5" value="" style="endArrow=none;html=1;rounded=0;exitX=0.5;exitY=0;exitDx=0;exitDy=0;entryX=0.5;entryY=1;entryDx=0;entryDy=0;" parent="1" source="vIU2pxsFmPDskn5fKLDd-2" target="vIU2pxsFmPDskn5fKLDd-1" edge="1">
          <mxGeometry width="50" height="50" relative="1" as="geometry">
            <mxPoint x="490" y="640" as="sourcePoint" />
            <mxPoint x="535" y="330" as="targetPoint" />
            <Array as="points">
              <mxPoint x="285" y="360" />
              <mxPoint x="645" y="360" />
            </Array>
          </mxGeometry>
        </mxCell>
        <mxCell id="vIU2pxsFmPDskn5fKLDd-6" value="" style="endArrow=none;html=1;rounded=0;exitX=0.5;exitY=0;exitDx=0;exitDy=0;entryX=0.5;entryY=1;entryDx=0;entryDy=0;" parent="1" source="vIU2pxsFmPDskn5fKLDd-4" target="vIU2pxsFmPDskn5fKLDd-1" edge="1">
          <mxGeometry width="50" height="50" relative="1" as="geometry">
            <mxPoint x="540" y="540" as="sourcePoint" />
            <mxPoint x="695" y="370" as="targetPoint" />
            <Array as="points">
              <mxPoint x="1005" y="360" />
              <mxPoint x="645" y="360" />
            </Array>
          </mxGeometry>
        </mxCell>
        <mxCell id="vIU2pxsFmPDskn5fKLDd-7" value="" style="endArrow=none;html=1;rounded=0;entryX=0.5;entryY=1;entryDx=0;entryDy=0;exitX=0.5;exitY=0;exitDx=0;exitDy=0;" parent="1" source="vIU2pxsFmPDskn5fKLDd-3" target="vIU2pxsFmPDskn5fKLDd-1" edge="1">
          <mxGeometry width="50" height="50" relative="1" as="geometry">
            <mxPoint x="600" y="640" as="sourcePoint" />
            <mxPoint x="650" y="590" as="targetPoint" />
          </mxGeometry>
        </mxCell>
        <mxCell id="GfDRe3IIaLIKTdWryUl4-1" value="&lt;span style=&quot;font-size: 24px;&quot;&gt;&lt;b&gt;VIAJES&lt;/b&gt;&lt;/span&gt;" style="rounded=1;whiteSpace=wrap;html=1;fillColor=light-dark(#23445d, #7d8c9b);strokeColor=#314354;fontColor=#ffffff;" vertex="1" parent="1">
          <mxGeometry x="-40" y="730" width="180" height="80" as="geometry" />
        </mxCell>
        <mxCell id="GfDRe3IIaLIKTdWryUl4-4" value="" style="endArrow=none;html=1;rounded=0;exitX=0.5;exitY=0;exitDx=0;exitDy=0;entryX=0.25;entryY=1;entryDx=0;entryDy=0;" edge="1" parent="1" source="GfDRe3IIaLIKTdWryUl4-1" target="vIU2pxsFmPDskn5fKLDd-2">
          <mxGeometry width="50" height="50" relative="1" as="geometry">
            <mxPoint x="510" y="630" as="sourcePoint" />
            <mxPoint x="560" y="580" as="targetPoint" />
          </mxGeometry>
        </mxCell>
        <mxCell id="GfDRe3IIaLIKTdWryUl4-5" value="&lt;span style=&quot;font-size: 24px;&quot;&gt;&lt;b&gt;RUTAS&lt;/b&gt;&lt;/span&gt;&lt;span style=&quot;color: rgba(0, 0, 0, 0); font-family: monospace; font-size: 0px; text-align: start; text-wrap-mode: nowrap;&quot;&gt;%3CmxGraphModel%3E%3Croot%3E%3CmxCell%20id%3D%220%22%2F%3E%3CmxCell%20id%3D%221%22%20parent%3D%220%22%2F%3E%3CmxCell%20id%3D%222%22%20value%3D%22%26lt%3Bspan%20style%3D%26quot%3Bfont-size%3A%2024px%3B%26quot%3B%26gt%3B%26lt%3Bb%26gt%3BVIAJES%26lt%3B%2Fb%26gt%3B%26lt%3B%2Fspan%26gt%3B%22%20style%3D%22rounded%3D1%3BwhiteSpace%3Dwrap%3Bhtml%3D1%3BfillColor%3Dlight-dark(%2323445d%2C%20%237d8c9b)%3BstrokeColor%3D%23314354%3BfontColor%3D%23ffffff%3B%22%20vertex%3D%221%22%20parent%3D%221%22%3E%3CmxGeometry%20x%3D%22-40%22%20y%3D%22730%22%20width%3D%22180%22%20height%3D%2280%22%20as%3D%22geometry%22%2F%3E%3C%2FmxCell%3E%3CmxCell%20id%3D%223%22%20value%3D%22%22%20style%3D%22endArrow%3Dnone%3Bhtml%3D1%3Brounded%3D0%3BexitX%3D0.5%3BexitY%3D0%3BexitDx%3D0%3BexitDy%3D0%3BentryX%3D0.25%3BentryY%3D1%3BentryDx%3D0%3BentryDy%3D0%3B%22%20edge%3D%221%22%20source%3D%222%22%20parent%3D%221%22%3E%3CmxGeometry%20width%3D%2250%22%20height%3D%2250%22%20relative%3D%221%22%20as%3D%22geometry%22%3E%3CmxPoint%20x%3D%22510%22%20y%3D%22630%22%20as%3D%22sourcePoint%22%2F%3E%3CmxPoint%20x%3D%22208%22%20y%3D%22580%22%20as%3D%22targetPoint%22%2F%3E%3C%2FmxGeometry%3E%3C%2FmxCell%3E%3C%2Froot%3E%3C%2FmxGraphModel%3E&lt;/span&gt;" style="rounded=1;whiteSpace=wrap;html=1;fillColor=light-dark(#23445d, #7d8c9b);strokeColor=#314354;fontColor=#ffffff;" vertex="1" parent="1">
          <mxGeometry x="161" y="730" width="180" height="80" as="geometry" />
        </mxCell>
        <mxCell id="GfDRe3IIaLIKTdWryUl4-6" value="" style="endArrow=none;html=1;rounded=0;exitX=0.5;exitY=0;exitDx=0;exitDy=0;entryX=0.5;entryY=1;entryDx=0;entryDy=0;" edge="1" parent="1" source="GfDRe3IIaLIKTdWryUl4-5" target="vIU2pxsFmPDskn5fKLDd-2">
          <mxGeometry width="50" height="50" relative="1" as="geometry">
            <mxPoint x="711" y="630" as="sourcePoint" />
            <mxPoint x="409" y="580" as="targetPoint" />
          </mxGeometry>
        </mxCell>
        <mxCell id="GfDRe3IIaLIKTdWryUl4-7" value="&lt;span style=&quot;font-size: 24px;&quot;&gt;&lt;b&gt;HITOS&lt;/b&gt;&lt;/span&gt;" style="rounded=1;whiteSpace=wrap;html=1;fillColor=light-dark(#23445d, #7d8c9b);strokeColor=#314354;fontColor=#ffffff;" vertex="1" parent="1">
          <mxGeometry x="360" y="730" width="180" height="80" as="geometry" />
        </mxCell>
        <mxCell id="GfDRe3IIaLIKTdWryUl4-8" value="" style="endArrow=none;html=1;rounded=0;exitX=0.5;exitY=0;exitDx=0;exitDy=0;entryX=0.75;entryY=1;entryDx=0;entryDy=0;" edge="1" parent="1" source="GfDRe3IIaLIKTdWryUl4-7" target="vIU2pxsFmPDskn5fKLDd-2">
          <mxGeometry width="50" height="50" relative="1" as="geometry">
            <mxPoint x="910" y="630" as="sourcePoint" />
            <mxPoint x="608" y="580" as="targetPoint" />
          </mxGeometry>
        </mxCell>
        <mxCell id="GfDRe3IIaLIKTdWryUl4-9" value="&lt;span style=&quot;font-size: 24px;&quot;&gt;&lt;b&gt;OBJETOS&lt;/b&gt;&lt;/span&gt;" style="rounded=1;whiteSpace=wrap;html=1;fillColor=light-dark(#23445d, #7d8c9b);strokeColor=#314354;fontColor=#ffffff;" vertex="1" parent="1">
          <mxGeometry x="460" y="630" width="180" height="80" as="geometry" />
        </mxCell>
        <mxCell id="GfDRe3IIaLIKTdWryUl4-10" value="" style="endArrow=none;html=1;rounded=0;exitX=0.5;exitY=0;exitDx=0;exitDy=0;entryX=0.25;entryY=1;entryDx=0;entryDy=0;" edge="1" parent="1" source="GfDRe3IIaLIKTdWryUl4-9" target="vIU2pxsFmPDskn5fKLDd-3">
          <mxGeometry width="50" height="50" relative="1" as="geometry">
            <mxPoint x="1010" y="530" as="sourcePoint" />
            <mxPoint x="708" y="480" as="targetPoint" />
          </mxGeometry>
        </mxCell>
        <mxCell id="GfDRe3IIaLIKTdWryUl4-13" value="&lt;span style=&quot;font-size: 24px;&quot;&gt;&lt;b&gt;PACKS&lt;/b&gt;&lt;/span&gt;" style="rounded=1;whiteSpace=wrap;html=1;fillColor=light-dark(#23445d, #7d8c9b);strokeColor=#314354;fontColor=#ffffff;" vertex="1" parent="1">
          <mxGeometry x="650" y="630" width="180" height="80" as="geometry" />
        </mxCell>
        <mxCell id="GfDRe3IIaLIKTdWryUl4-14" value="" style="endArrow=none;html=1;rounded=0;exitX=0.5;exitY=0;exitDx=0;exitDy=0;entryX=0.75;entryY=1;entryDx=0;entryDy=0;" edge="1" parent="1" source="GfDRe3IIaLIKTdWryUl4-13" target="vIU2pxsFmPDskn5fKLDd-3">
          <mxGeometry width="50" height="50" relative="1" as="geometry">
            <mxPoint x="1200" y="530" as="sourcePoint" />
            <mxPoint x="758" y="580" as="targetPoint" />
          </mxGeometry>
        </mxCell>
        <mxCell id="GfDRe3IIaLIKTdWryUl4-15" value="&lt;span style=&quot;font-size: 24px;&quot;&gt;&lt;b&gt;CLIENTES&lt;/b&gt;&lt;/span&gt;" style="rounded=1;whiteSpace=wrap;html=1;fillColor=light-dark(#23445d, #7d8c9b);strokeColor=#314354;fontColor=#ffffff;" vertex="1" parent="1">
          <mxGeometry x="820" y="730" width="180" height="80" as="geometry" />
        </mxCell>
        <mxCell id="GfDRe3IIaLIKTdWryUl4-16" value="" style="endArrow=none;html=1;rounded=0;exitX=0.5;exitY=0;exitDx=0;exitDy=0;entryX=0.25;entryY=1;entryDx=0;entryDy=0;" edge="1" parent="1" source="GfDRe3IIaLIKTdWryUl4-15" target="vIU2pxsFmPDskn5fKLDd-4">
          <mxGeometry width="50" height="50" relative="1" as="geometry">
            <mxPoint x="1370" y="630" as="sourcePoint" />
            <mxPoint x="928" y="680" as="targetPoint" />
          </mxGeometry>
        </mxCell>
        <mxCell id="GfDRe3IIaLIKTdWryUl4-17" value="&lt;span style=&quot;font-size: 24px;&quot;&gt;&lt;b&gt;ALOJAMIENTOS&lt;/b&gt;&lt;/span&gt;" style="rounded=1;whiteSpace=wrap;html=1;fillColor=light-dark(#23445d, #7d8c9b);strokeColor=#314354;fontColor=#ffffff;" vertex="1" parent="1">
          <mxGeometry x="1010" y="730" width="210" height="80" as="geometry" />
        </mxCell>
        <mxCell id="GfDRe3IIaLIKTdWryUl4-18" value="" style="endArrow=none;html=1;rounded=0;exitX=0.5;exitY=0;exitDx=0;exitDy=0;entryX=0.75;entryY=1;entryDx=0;entryDy=0;" edge="1" parent="1" source="GfDRe3IIaLIKTdWryUl4-17" target="vIU2pxsFmPDskn5fKLDd-4">
          <mxGeometry width="50" height="50" relative="1" as="geometry">
            <mxPoint x="1560" y="630" as="sourcePoint" />
            <mxPoint x="1118" y="580" as="targetPoint" />
          </mxGeometry>
        </mxCell>
      </root>
    </mxGraphModel>
  </diagram>
</mxfile>
